@startuml
skinparam monochrome true
skinparam packageStyle rectangle
skinparam shadowing false

'left to right direction

skinparam classAttributeIconSize 0

hide circle
hide methods

title Domain Model - US001

class Client{}

class Announcement {
    typeCommission
    amountCommission
}

class Property{
      area
      distanceCityCenter
}

class Price{
amount
}

class Lease{
contractDuration
}

class Location{
streetName
city
district
state
zipCode
}

class TypeProperty{
designation
}

class TypeResidence{
designation
}

class Photograph{
url
}

class House{
 basement
 inhabitableLoft
 sunExposure
}

class Residence{
 numberBedrooms
 numberBathrooms
 parkingSpace
availableEquipment
}


Client "1" -- "1..*" Announcement: views >
Announcement "1" -- "1" Property: contains >
Residence  --|>  Property
House --|> Residence
TypeProperty "1" - "1" Property: is a description of >
TypeResidence "1" -- "1" Residence: is a description of >
Property "1" - "1" Location: contains >
Property "1" -- "*" Photograph: contains >
Price <|-left- Lease
Property "1" -- "1" Price: contains >

@enduml